# xmcd CD database file
#
# Track frame offsets:
#	150
#	16205
#	34065
#	62797
#	75477
#	93465
#	108465
#	121592
#	145295
#	167022
#	186842
#	212282
#
# Disc length: 3079 seconds
#
# Revision: 1
# Processed by: cddbd v1.5.2PL0 Copyright (c) Steve Scherf et al.
# Submitted via: CDex 1.70beta3
#
DISCID=940c050c
DTITLE=憂歌団 - Rolling 70'S サマータイム
DYEAR=1900
DGENRE=Blues
TTITLE0=ハワイアン・ムード
TTITLE1=サマータイム
TTITLE2=けだるい二人
TTITLE3=ボニータ
TTITLE4=夢
TTITLE5=コリナ・コリナ
TTITLE6=イフ・アイ・ディドゥント・ラブ・ユー
TTITLE7=ステイ・ウィズ・ユー・フォーエヴァー
TTITLE8=スロー・トレイン・ブルース
TTITLE9=オール・オブ・ミー
TTITLE10=グッド・ナイト・スィートハート
TTITLE11=夜明けのララバイ
EXTD=
EXTT0=
EXTT1=
EXTT2=
EXTT3=
EXTT4=
EXTT5=
EXTT6=
EXTT7=
EXTT8=
EXTT9=
EXTT10=
EXTT11=
PLAYORDER=
